HIERARCHY
ROOT Hips
{
	OFFSET 0.00000 0.00000 0.00000
	CHANNELS 6 Xposition Yposition Zposition Zrotation Yrotation Xrotation 
	JOINT LHipJoint
	{
		OFFSET 0 0 0
		CHANNELS 3 Zrotation Yrotation Xrotation
		JOINT LeftUpLeg
		{
			OFFSET 1.66553 -1.82942 0.76350
			CHANNELS 3 Zrotation Yrotation Xrotation
			JOINT LeftLeg
			{
				OFFSET 2.41740 -6.64177 0.00000
				CHANNELS 3 Zrotation Yrotation Xrotation
				JOINT LeftFoot
				{
					OFFSET 2.71614 -7.46254 0.00000
					CHANNELS 3 Zrotation Yrotation Xrotation
					JOINT LeftToeBase
					{
						OFFSET 0.08005 -0.21993 1.82495
						CHANNELS 3 Zrotation Yrotation Xrotation
						End Site
						{
							OFFSET 0.00000 -0.00000 0.93441
						}
					}
				}
			}
		}
	}
	JOINT RHipJoint
	{
		OFFSET 0 0 0
		CHANNELS 3 Zrotation Yrotation Xrotation
		JOINT RightUpLeg
		{
			OFFSET -1.63725 -1.82942 0.76350
			CHANNELS 3 Zrotation Yrotation Xrotation
			JOINT RightLeg
			{
				OFFSET -2.40538 -6.60872 0.00000
				CHANNELS 3 Zrotation Yrotation Xrotation
				JOINT RightFoot
				{
					OFFSET -2.73312 -7.50919 0.00000
					CHANNELS 3 Zrotation Yrotation Xrotation
					JOINT RightToeBase
					{
						OFFSET -0.15567 -0.42769 1.93504
						CHANNELS 3 Zrotation Yrotation Xrotation
						End Site
						{
							OFFSET -0.00000 -0.00000 1.00100
						}
					}
				}
			}
		}
	}
	JOINT LowerBack
	{
		OFFSET 0 0 0
		CHANNELS 3 Zrotation Yrotation Xrotation
		JOINT Spine
		{
			OFFSET 0.00326 2.30118 -0.13017
			CHANNELS 3 Zrotation Yrotation Xrotation
			JOINT Spine1
			{
				OFFSET 0.02887 2.30677 0.00834
				CHANNELS 3 Zrotation Yrotation Xrotation
				JOINT Neck
				{
					OFFSET 0 0 0
					CHANNELS 3 Zrotation Yrotation Xrotation
					JOINT Neck1
					{
						OFFSET 0.12946 1.68326 0.00713
						CHANNELS 3 Zrotation Yrotation Xrotation
						JOINT Head
						{
							OFFSET -0.24364 1.67243 -0.16079
							CHANNELS 3 Zrotation Yrotation Xrotation
							End Site
							{
								OFFSET -0.09229 1.70819 -0.06383
							}
						}
					}
				}
				JOINT LeftShoulder
				{
					OFFSET 0 0 0
					CHANNELS 3 Zrotation Yrotation Xrotation
					JOINT LeftArm
					{
						OFFSET 3.28104 0.69567 -0.00556
						CHANNELS 3 Zrotation Yrotation Xrotation
						JOINT LeftForeArm
						{
							OFFSET 5.70706 -0.00000 -0.00000
							CHANNELS 3 Zrotation Yrotation Xrotation
							JOINT LeftHand
							{
								OFFSET 3.33243 -0.00000 0.00000
								CHANNELS 3 Zrotation Yrotation Xrotation
								JOINT LeftFingerBase
								{
									OFFSET 0 0 0
									CHANNELS 3 Zrotation Yrotation Xrotation
									JOINT LeftHandIndex1
									{
										OFFSET 0.79269 -0.00000 0.00000
										CHANNELS 3 Zrotation Yrotation Xrotation
										End Site
										{
											OFFSET 0.63909 -0.00000 0.00000
										}
									}
								}
								JOINT LThumb
								{
									OFFSET 0 0 0
									CHANNELS 3 Zrotation Yrotation Xrotation
									End Site
									{
										OFFSET 0.64884 -0.00000 0.64884
									}
								}
							}
						}
					}
				}
				JOINT RightShoulder
				{
					OFFSET 0 0 0
					CHANNELS 3 Zrotation Yrotation Xrotation
					JOINT RightArm
					{
						OFFSET -3.40955 0.64424 0.14010
						CHANNELS 3 Zrotation Yrotation Xrotation
						JOINT RightForeArm
						{
							OFFSET -5.88176 -0.00000 -0.00000
							CHANNELS 3 Zrotation Yrotation Xrotation
							JOINT RightHand
							{
								OFFSET -3.28156 -0.00000 0.00000
								CHANNELS 3 Zrotation Yrotation Xrotation
								JOINT RightFingerBase
								{
									OFFSET 0 0 0
									CHANNELS 3 Zrotation Yrotation Xrotation
									JOINT RightHandIndex1
									{
										OFFSET -0.86313 -0.00000 0.00000
										CHANNELS 3 Zrotation Yrotation Xrotation
										End Site
										{
											OFFSET -0.69587 -0.00000 0.00000
										}
									}
								}
								JOINT RThumb
								{
									OFFSET 0 0 0
									CHANNELS 3 Zrotation Yrotation Xrotation
									End Site
									{
										OFFSET -0.70650 -0.00000 0.70650
									}
								}
							}
						}
					}
				}
			}
		}
	}
}
MOTION
Frames: 7
Frame Time: .0083333
11.3472 15.8570 -15.0061 3.3113 -29.9177 -1.8322 0.0000 0.0000 0.0000 7.1467 40.6220 -61.5243 17.5959 19.8609 82.9552 0.6747 1.5665 15.0621 0.3411 -3.7533 -10.3835 0.0000 0.0000 0.0000 -2.3530 -30.5487 -35.7076 -10.4199 -17.6393 60.8828 -1.1830 3.8884 -19.6370 -0.4375 -4.2443 11.7650 -0.0787 -0.9521 23.5141 -1.7320 -1.6002 -3.5178 -1.3881 -0.8255 -17.5486 16.5439 9.6416 9.2609 -24.9110 10.0579 -32.9145 -13.1723 5.6478 -9.1036 0.0000 0.0000 0.0000 -10.5023 12.6108 -38.9816 128.3870 -53.6257 -92.5323 -0.0000 0.0000 -45.1494 31.2060 25.9771 14.8600 -7.1250 0.0000 -0.0000 1.6149 59.6410 0.5773 0.0000 0.0000 0.0000 11.1412 6.2064 -37.7097 -136.9455 49.7790 -99.2576 0.0000 -0.0000 -23.4749 -33.0067 1.1682 -0.7588 7.1250 -0.0000 -0.0000 -4.9992 -28.5729 -2.0063
11.3332 15.8056 -15.0262 3.3360 -29.8594 -1.8173 0.0000 0.0000 0.0000 7.7845 40.4946 -61.3661 17.5421 19.8545 82.7970 0.7401 0.1670 16.2041 0.4195 -4.1574 -11.5200 0.0000 0.0000 0.0000 -1.9833 -30.8926 -36.2113 -10.5084 -17.6860 61.1744 -1.3777 3.6400 -21.2952 -0.5662 -4.8191 13.3934 -0.3616 -0.8462 23.7555 -1.7282 -1.5491 -3.6339 -1.2404 -0.7742 -17.8319 16.4894 9.5564 9.1996 -24.7555 9.9358 -33.0465 -13.1209 5.5684 -9.1903 -0.0000 0.0000 0.0000 -10.7604 12.6600 -39.2746 130.2376 -52.8992 -94.0155 -0.0000 0.0000 -45.4381 33.3173 25.7768 15.9522 -7.1250 0.0000 -0.0000 4.2025 59.9545 1.5353 -0.0000 0.0000 0.0000 11.9354 5.6224 -37.3135 -137.5624 49.4496 -99.7276 0.0000 -0.0000 -23.0430 -34.9557 1.0528 -0.7359 7.1250 -0.0000 -0.0000 -6.5167 -28.6708 -2.6065
11.3249 15.7610 -15.0408 3.5311 -29.8661 -1.8058 0.0000 0.0000 0.0000 8.0699 40.3435 -61.1206 17.3951 19.8365 82.3639 0.7893 -0.7562 17.0767 0.3390 -3.7418 -10.3513 0.0000 0.0000 0.0000 -1.8277 -31.0230 -36.7736 -10.6231 -17.7456 61.5513 -1.5421 3.2861 -22.6454 -0.6503 -5.1585 14.3612 -0.7571 -0.7092 23.8391 -1.7667 -1.4967 -3.7191 -1.0794 -0.7135 -17.9800 16.4091 9.5328 9.0121 -24.6130 9.8743 -33.1829 -13.0534 5.5186 -9.2376 -0.0000 0.0000 0.0000 -11.0465 12.7103 -39.6536 132.0048 -52.1542 -95.4181 -0.0000 0.0000 -45.6348 35.2387 25.3270 16.8149 -7.1250 0.0000 -0.0000 6.6477 59.9475 2.4314 -0.0000 0.0000 0.0000 12.6638 4.9818 -37.0569 -138.1104 49.1504 -100.1430 0.0000 -0.0000 -22.7676 -36.5691 1.1027 -0.8179 7.1250 -0.0000 -0.0000 -7.7579 -28.5726 -3.1289
11.3197 15.7238 -15.0560 3.5492 -29.9470 -1.6123 0.0000 0.0000 0.0000 8.3711 40.1711 -60.8021 17.1685 19.8067 81.6957 0.8685 -0.8642 17.9414 0.1259 -2.2870 -6.2995 0.0000 0.0000 0.0000 -1.6095 -30.7414 -37.3337 -10.7713 -17.8214 62.0367 -1.6438 3.0729 -23.4510 -0.6727 -5.2448 14.6082 -1.0143 -0.5957 23.7925 -1.7946 -1.4304 -3.8351 -0.9919 -0.6601 -18.0916 16.5301 9.4058 8.9024 -24.5770 9.6857 -33.3525 -13.0845 5.3975 -9.3197 -0.0000 -0.0000 0.0000 -11.3042 12.8322 -40.0110 133.6744 -51.4016 -96.7298 -0.0000 0.0000 -45.5354 36.9753 24.5551 17.3734 -7.1250 0.0000 -0.0000 8.9056 59.5240 3.1740 -0.0000 -0.0000 0.0000 13.5026 4.4195 -36.8029 -138.5997 48.8780 -100.5124 0.0000 -0.0000 -22.5708 -37.9603 1.0025 -0.7820 7.1250 -0.0000 -0.0000 -8.8406 -28.6621 -3.5557
11.3182 15.6844 -15.0740 3.3013 -30.1191 -1.3223 0.0000 0.0000 0.0000 8.8873 40.0942 -60.3748 16.8958 19.7674 80.8899 0.9726 -0.9371 18.9964 0.0271 -1.0620 -2.9195 0.0000 0.0000 0.0000 -1.3536 -30.1727 -37.7895 -10.9632 -17.9170 62.6619 -1.6887 3.4374 -23.7108 -0.7399 -5.4950 15.3260 -1.0835 -0.4775 23.7029 -1.8661 -1.3074 -4.1776 -0.9714 -0.5818 -17.7770 16.8100 9.2686 8.6947 -24.5864 9.4734 -33.6715 -13.1761 5.2428 -9.4267 0.0000 -0.0000 0.0000 -11.4394 12.7425 -40.3874 135.1223 -50.7084 -97.8559 -0.0000 0.0000 -45.0986 38.3956 23.7177 17.6798 -7.1250 0.0000 -0.0000 10.7327 58.9311 3.6809 0.0000 -0.0000 0.0000 14.6042 3.9022 -36.5551 -139.0906 48.5995 -100.8814 0.0000 -0.0000 -22.2275 -39.3322 0.8875 -0.7272 7.1250 -0.0000 -0.0000 -9.9104 -28.7721 -3.9710
11.3210 15.6406 -15.0879 3.3888 -30.2775 -1.2508 0.0000 0.0000 0.0000 8.9650 39.9485 -59.8278 16.5847 19.7180 79.9692 1.0527 -1.3402 19.9125 0.0075 -0.5585 -1.5346 0.0000 0.0000 0.0000 -1.5944 -29.7120 -38.2063 -11.1873 -18.0255 63.3883 -1.7162 4.0420 -23.8051 -0.8027 -5.7183 15.9693 -1.4797 -0.3135 23.7640 -1.9125 -1.2207 -4.2267 -0.8339 -0.5059 -17.8611 16.6885 9.2235 8.6172 -24.3889 9.3697 -34.1345 -13.1431 5.1616 -9.6360 0.0000 0.0000 0.0000 -11.5769 12.6813 -40.6834 136.4645 -50.0305 -98.8897 -0.0000 0.0000 -44.8329 39.7854 22.0255 17.3432 -7.1250 0.0000 -0.0000 12.4540 57.3080 3.7941 0.0000 0.0000 0.0000 15.6708 3.2481 -36.1800 -139.6461 48.2782 -101.2971 0.0000 -0.0000 -22.0338 -40.7739 0.9471 -0.8167 7.1250 -0.0000 -0.0000 -11.0079 -28.6557 -4.4562
11.3324 15.5900 -15.0994 3.4644 -30.2232 -1.1648 0.0000 0.0000 0.0000 8.8692 39.4798 -59.3410 16.2788 19.6647 79.0614 1.0705 -2.1567 20.4332 0.0211 -0.9380 -2.5782 0.0000 0.0000 0.0000 -1.7896 -29.5716 -38.6851 -11.4104 -18.1301 64.1074 -1.7462 3.9376 -24.0387 -0.6396 -5.1165 14.2411 -1.8343 -0.2997 23.8646 -1.8167 -1.3029 -4.3838 -0.4979 -0.4957 -18.0975 16.1563 9.1614 8.7895 -24.0949 9.2343 -34.3856 -12.9928 5.1165 -9.8676 -0.0000 -0.0000 0.0000 -11.8886 12.9653 -40.8594 137.8090 -49.3157 -99.9147 -0.0000 0.0000 -44.7642 41.1640 20.5080 17.0303 -7.1250 0.0000 -0.0000 14.0308 55.8462 3.7872 -0.0000 -0.0000 0.0000 16.3869 2.6771 -35.5508 -140.0998 48.0106 -101.6350 0.0000 -0.0000 -21.9870 -41.9713 1.2826 -1.1534 7.1250 -0.0000 -0.0000 -11.8680 -28.1779 -4.9554
